 <svg version="1.0" xmlns="http://www.w3.org/2000/svg" width="700.000000pt" height="394.000000pt" viewBox="0 0 700.000000 394.000000" preserveAspectRatio="xMidYMid meet">
<metadata>
Created by potrace 1.12, written by Peter Selinger 2001-2015
</metadata>
<g transform="translate(0.000000,394.000000) scale(0.100000,-0.100000)" fill="#000000" stroke="none">
<path d="M1129 3381 l-24 -19 0 -517 0 -517 24 -19 c21 -17 42 -19 243 -19
l220 0 29 29 30 30 -3 156 -3 157 -80 0 -80 0 -5 -113 -5 -114 -102 0 c-57 0
-103 3 -103 8 0 4 0 189 0 412 l0 406 103 -3 102 -3 5 -105 5 -105 80 0 80 0
3 146 c2 146 2 147 -24 178 l-26 31 -223 0 c-204 0 -225 -2 -246 -19z m451
-24 c25 -12 25 -15 28 -145 l3 -133 -43 3 -43 3 -5 86 c-3 51 -11 93 -19 103
-11 13 -34 16 -127 16 -105 0 -114 -1 -128 -22 -14 -19 -16 -77 -16 -424 0
-489 -13 -449 144 -449 137 0 139 2 146 133 l5 97 40 0 40 0 3 -130 c2 -101
-1 -135 -12 -150 -14 -19 -27 -20 -220 -20 -173 0 -208 2 -221 16 -14 13 -16
74 -15 505 0 486 0 489 21 507 19 15 45 17 208 17 130 0 194 -4 211 -13z"></path>
<path d="M3572 2848 l3 -553 75 0 75 0 0 333 c0 182 3 332 8 332 4 0 7 -5 7
-11 0 -16 231 -631 243 -647 7 -9 31 -12 76 -10 l66 3 0 550 0 550 -78 3 -78
3 3 -331 c2 -181 1 -330 -2 -330 -3 0 -31 71 -64 158 -32 86 -88 234 -125 327
l-66 170 -73 3 -72 3 2 -553z m115 510 c6 -7 61 -143 123 -303 62 -159 120
-298 130 -309 12 -12 25 -16 39 -11 21 6 21 10 21 301 0 185 4 303 10 315 12
22 59 26 78 7 17 -17 17 -1009 0 -1026 -16 -16 -63 -15 -76 1 -6 7 -59 138
-117 291 -131 345 -136 355 -170 349 -14 -3 -26 -6 -27 -7 -1 0 -4 -145 -8
-321 l-5 -320 -28 -3 c-59 -7 -57 -26 -57 528 0 278 3 510 7 513 11 12 70 8
80 -5z"></path>
<path d="M4260 2845 l0 -555 80 0 80 0 2 288 3 287 73 3 72 3 0 -291 0 -290
85 0 85 0 0 335 0 336 -26 26 c-25 25 -29 25 -107 19 -45 -3 -106 -9 -134 -12
l-53 -7 0 207 0 206 -80 0 -80 0 0 -555z"></path>
<path d="M1770 2670 c0 -325 1 -341 20 -360 30 -30 63 -34 178 -17 62 9 108
12 110 6 2 -5 42 -9 88 -9 l84 0 0 360 0 361 -82 -3 -83 -3 -3 -287 -2 -286
-63 -4 c-34 -2 -68 -2 -74 0 -10 3 -13 71 -13 293 l0 289 -80 0 -80 0 0 -340z"></path>
<path d="M2367 3003 c-4 -3 -7 -165 -7 -360 l0 -353 85 0 85 0 2 288 3 287 70
0 70 0 3 -287 2 -288 86 0 85 0 -3 341 -3 341 -24 19 c-28 23 -78 24 -200 7
-67 -10 -85 -10 -89 0 -4 13 -153 18 -165 5z"></path>
<path d="M3018 2992 c-54 -33 -58 -56 -58 -339 0 -238 2 -260 20 -290 34 -56
62 -67 185 -73 l110 -5 0 -70 0 -70 -70 0 -70 0 -3 43 -3 42 -80 0 -79 0 0
-74 c0 -65 3 -79 24 -103 l24 -28 187 0 187 0 24 28 24 28 0 465 0 464 -79 0
c-57 0 -80 -4 -84 -14 -4 -11 -16 -11 -74 0 -93 18 -153 17 -185 -4z m257
-144 c3 -13 4 -113 3 -223 l-3 -200 -57 -3 c-47 -2 -61 1 -78 18 -19 19 -20
32 -20 206 0 109 4 193 10 205 9 16 22 19 75 19 59 0 65 -2 70 -22z"></path>
<path d="M4903 3000 c-34 -14 -43 -42 -43 -135 l0 -86 73 3 72 3 5 50 5 50 70
0 70 0 3 -82 3 -83 -131 0 c-126 0 -132 -1 -155 -25 -24 -24 -25 -28 -25 -184
0 -88 4 -171 9 -184 15 -38 57 -48 158 -36 48 5 97 12 109 15 12 3 25 1 28 -5
4 -6 40 -11 87 -11 l79 0 0 325 c0 343 -3 364 -47 384 -29 13 -337 14 -370 1z
m257 -485 c0 -92 -1 -95 -22 -95 -13 0 -47 -3 -75 -6 l-53 -7 0 102 0 101 75
0 75 0 0 -95z"></path>
<path d="M5430 2683 c0 -356 2 -367 55 -392 25 -12 44 -12 139 2 67 9 115 12
121 6 5 -5 44 -9 87 -9 l78 0 0 360 0 360 -80 0 -80 0 0 -289 0 -289 -75 -4
-75 -3 -2 290 -3 290 -82 3 -83 3 0 -328z"></path>
<path d="M1765 1638 c-3 -7 -4 -256 -3 -553 l3 -540 80 0 80 0 5 245 5 245
110 0 110 0 3 -248 2 -248 78 3 77 3 0 550 0 550 -78 0 -78 0 -2 -225 -2 -225
-110 0 -110 0 -5 225 -5 225 -78 3 c-56 2 -79 -1 -82 -10z m135 -235 c4 -155
8 -216 18 -225 8 -8 49 -14 115 -16 152 -5 149 -9 149 193 0 88 3 183 6 210
l7 50 45 0 45 0 0 -520 0 -520 -39 -3 c-21 -2 -44 2 -50 8 -7 7 -11 83 -11
231 -1 271 9 254 -145 254 -76 0 -113 -4 -122 -13 -10 -10 -14 -73 -18 -245
l-5 -232 -50 0 -50 0 -3 510 c-1 281 0 516 3 523 3 9 20 12 52 10 l48 -3 5
-212z"></path>
<path d="M3584 1637 c-3 -8 -4 -40 -2 -72 l3 -59 90 0 90 -1 5 -480 5 -480 75
0 75 0 5 480 5 480 90 0 90 0 0 70 0 70 -263 3 c-216 2 -263 0 -268 -11z m491
-57 l0 -35 -71 -5 c-39 -3 -78 -11 -87 -19 -15 -12 -17 -62 -19 -480 l-3 -466
-45 0 -45 0 -3 466 c-2 418 -4 468 -19 480 -9 8 -48 16 -87 19 -65 5 -71 7
-74 28 -8 53 -10 53 230 50 l223 -3 0 -35z"></path>
<path d="M2493 1250 c-12 -5 -26 -18 -32 -29 -7 -13 -11 -130 -11 -330 0 -298
1 -312 20 -331 19 -19 33 -20 215 -20 182 0 196 1 215 20 19 19 20 33 20 334
0 294 -1 315 -19 337 -19 23 -23 24 -203 26 -100 1 -193 -2 -205 -7z m262
-355 l0 -220 -70 0 -70 0 -3 210 c-1 115 0 215 3 223 3 9 23 12 72 10 l68 -3
0 -220z"></path>
<path d="M3083 1250 c-12 -5 -26 -18 -32 -29 -7 -13 -11 -130 -11 -330 0 -298
1 -312 20 -331 19 -19 33 -20 210 -20 241 0 230 -8 230 155 l0 115 -80 0 -80
0 0 -70 0 -71 -67 3 -68 3 0 220 0 220 68 3 67 3 0 -61 0 -60 80 0 80 0 0 104
c0 155 7 150 -217 153 -98 1 -188 -2 -200 -7z"></path>
<path d="M4243 1250 c-34 -14 -43 -42 -43 -135 l0 -86 73 3 72 3 3 48 3 47 75
0 75 0 -3 -77 -3 -78 -133 -5 c-180 -7 -172 3 -172 -219 0 -186 6 -206 63
-216 18 -3 77 1 132 8 58 9 104 11 110 6 5 -5 44 -9 88 -9 l78 0 -3 335 c-3
333 -3 335 -26 357 -21 22 -30 23 -195 25 -94 1 -182 -2 -194 -7z m255 -486
l3 -91 -47 -7 c-26 -3 -60 -6 -75 -6 l-29 0 0 100 0 101 73 -3 72 -3 3 -91z"></path>
<path d="M4770 765 l0 -496 83 3 82 3 5 128 5 128 100 3 c105 3 142 14 180 56
19 21 20 38 23 325 l3 303 -27 21 c-31 25 -71 26 -196 7 -72 -10 -88 -10 -92
1 -4 9 -28 13 -86 13 l-80 0 0 -495z m318 148 c2 -192 1 -204 -18 -223 -15
-15 -33 -20 -75 -20 l-55 0 0 225 0 226 73 -3 72 -3 3 -202z"></path>
</g>
</svg>